<?xml version="1.0" standalone="no"?>
<!DOCTYPE svg PUBLIC "-//W3C//DTD SVG 20010904//EN"
 "http://www.w3.org/TR/2001/REC-SVG-20010904/DTD/svg10.dtd">
<svg version="1.0" xmlns="http://www.w3.org/2000/svg"
 width="1125.000000pt" height="750.000000pt" viewBox="0 0 1125.000000 750.000000"
 preserveAspectRatio="xMidYMid meet">
<metadata>
Created by potrace 1.16, written by Peter Selinger 2001-2019
</metadata>
<g transform="translate(0.000000,750.000000) scale(0.100000,-0.100000)"
fill="#000000" stroke="none">
<path d="M0 3750 l0 -3750 5625 0 5625 0 0 3750 0 3750 -5625 0 -5625 0 0
-3750z m6894 2504 c451 -201 866 -556 1138 -974 38 -58 108 -183 155 -278 101
-202 101 -207 7 -207 l-58 0 -81 160 c-44 88 -110 205 -146 260 -205 313 -490
588 -811 784 -99 60 -316 171 -334 171 -3 0 -31 12 -62 26 -31 15 -63 27 -69
27 -7 0 -13 5 -13 10 0 5 7 6 16 3 8 -3 12 -2 9 4 -3 6 -1 10 4 10 6 0 11 6
11 13 0 18 72 55 95 49 11 -3 74 -29 139 -58z m-3702 -1044 c640 -110 1251
-535 1373 -955 13 -44 16 -82 13 -152 -5 -83 -10 -103 -43 -169 -23 -48 -61
-101 -103 -145 -54 -58 -83 -78 -166 -120 -56 -27 -146 -61 -201 -76 -90 -23
-119 -26 -280 -27 -128 0 -199 4 -247 15 l-66 15 -6 -37 c-7 -45 -37 -69 -84
-69 -66 0 -93 34 -107 136 -6 50 -7 51 -63 78 -105 51 -222 136 -306 219 -124
123 -151 200 -98 275 44 60 214 137 382 172 l85 17 7 104 c11 181 34 279 66
279 48 0 88 -98 104 -251 l12 -109 56 0 c137 0 344 -41 435 -87 113 -56 162
-141 128 -226 -24 -58 -82 -97 -148 -97 -44 0 -100 21 -85 32 3 2 24 16 48 31
55 35 54 64 -1 91 -48 23 -236 61 -350 71 l-89 7 7 -244 c4 -133 8 -244 9
-245 1 -1 54 -8 118 -14 128 -14 300 -3 413 26 90 23 217 89 270 140 70 68
100 141 100 240 -1 141 -67 267 -225 425 -281 283 -745 482 -1208 520 -144 12
-302 3 -372 -21 l-34 -12 43 -11 c83 -21 79 -66 -5 -66 -59 0 -103 18 -110 45
-7 30 26 95 66 129 90 75 417 108 662 66z m1836 -157 c22 -18 52 -35 66 -39
15 -3 42 -21 61 -38 108 -102 7 -278 -225 -394 -72 -36 -77 -37 -182 -37 -94
0 -109 -2 -114 -18 -3 -9 -14 -22 -25 -27 -29 -16 -66 25 -74 83 -4 25 -18 67
-31 93 -46 91 -23 175 72 270 101 102 203 145 330 141 76 -2 85 -5 122 -34z
m3287 -423 c6 -9 38 -226 50 -342 l6 -58 190 0 c112 0 198 -4 210 -10 15 -9
19 -22 19 -63 0 -29 -5 -58 -12 -65 -9 -9 -69 -12 -209 -12 l-196 0 -5 -192
c-7 -217 -7 -218 -84 -218 -50 0 -78 22 -70 54 3 12 9 96 12 189 l7 167 -194
0 c-138 0 -198 3 -207 12 -7 7 -12 35 -12 63 0 28 5 56 12 63 8 8 67 12 201
12 l190 0 -7 93 c-4 50 -15 138 -25 193 -9 56 -15 107 -13 113 5 14 128 15
137 1z m-2182 -142 c128 -126 190 -383 142 -587 -20 -82 -46 -124 -91 -146
-51 -24 -86 -12 -139 47 -39 44 -71 96 -180 293 -25 45 -32 20 -39 -151 -3
-84 -11 -169 -18 -190 -25 -76 -109 -69 -136 11 -19 54 -9 280 16 400 44 205
96 259 174 178 47 -50 100 -125 176 -250 70 -113 88 -134 98 -110 8 22 -19
164 -68 358 -36 141 -40 169 -29 183 21 25 37 19 94 -36z m1089 -45 c8 -39
-13 -103 -67 -200 -65 -119 -88 -179 -83 -223 3 -30 5 -29 63 52 85 118 217
252 278 283 58 29 122 33 155 9 47 -33 66 -90 67 -199 0 -125 -18 -182 -89
-274 -100 -133 -189 -190 -313 -200 l-76 -6 -34 -90 c-43 -117 -88 -284 -109
-410 -23 -141 -35 -151 -106 -87 -59 53 -78 100 -78 198 0 103 33 235 96 387
51 125 53 135 31 192 -21 52 -21 157 -1 226 34 114 110 237 197 317 51 46 64
51 69 25z m-1685 -27 c28 -9 60 -24 72 -34 18 -15 19 -20 8 -42 -22 -44 -58
-52 -287 -67 -216 -13 -333 -34 -312 -55 5 -5 97 -21 203 -34 107 -13 217 -32
244 -41 146 -47 190 -232 84 -348 -58 -62 -123 -88 -240 -93 -71 -3 -111 0
-155 13 -218 63 -311 217 -182 302 33 22 54 27 121 31 127 6 317 -43 317 -82
0 -23 -39 -45 -102 -58 -52 -11 -61 -10 -143 20 -94 34 -141 40 -169 19 -26
-19 -16 -49 24 -70 50 -26 249 -19 334 11 80 29 126 62 126 89 0 49 -92 77
-343 103 -190 19 -209 23 -241 59 -28 30 -18 118 17 165 37 47 150 102 252
121 101 18 298 14 372 -9z m1363 -12 c53 -45 78 -115 45 -128 -16 -6 -139 -21
-257 -31 -69 -7 -70 -7 -88 -67 l-8 -28 71 6 c40 3 90 2 112 -3 39 -9 40 -10
43 -54 2 -32 -2 -50 -12 -58 -10 -8 -62 -15 -141 -19 l-125 -5 -20 -65 c-11
-36 -18 -67 -16 -69 3 -3 58 4 123 16 159 28 186 28 212 -5 43 -55 15 -97
-111 -167 -125 -70 -237 -93 -297 -63 -37 19 -89 80 -97 112 -9 37 1 141 19
193 13 36 14 53 5 86 -14 53 -6 74 32 82 30 6 56 40 74 101 6 19 4 22 -19 22
-33 0 -95 59 -95 89 0 14 9 25 26 31 49 19 280 48 386 49 101 1 108 0 138 -25z
m-2127 -23 c32 -38 44 -121 57 -399 10 -219 8 -254 -18 -284 -19 -22 -79 -24
-109 -3 -41 28 -48 76 -46 295 2 274 29 420 77 420 8 0 25 -13 39 -29z m-2092
-1463 c50 -17 83 -45 110 -91 21 -38 24 -56 27 -195 l4 -154 37 36 c20 19 63
47 96 63 52 24 73 27 155 27 206 1 353 -98 414 -278 18 -56 20 -90 24 -414 2
-195 1 -359 -1 -365 -3 -8 -35 -11 -100 -9 l-96 3 -4 342 c-3 357 -6 383 -50
448 -69 102 -228 128 -348 56 -45 -27 -59 -43 -89 -101 l-35 -69 -3 -338 -3
-339 -99 0 -100 0 0 695 c0 577 2 695 14 695 7 0 28 -5 47 -12z m2589 -163 l0
-175 85 0 85 0 0 -90 0 -90 -85 0 -85 0 0 -430 0 -430 -25 0 c-54 0 -116 44
-149 105 -20 38 -21 54 -24 398 l-3 357 -40 0 -39 0 0 90 0 90 40 0 40 0 0
175 0 175 100 0 100 0 0 -175z m1360 0 l0 -175 85 0 85 0 0 -90 0 -90 -85 0
-85 0 0 -430 0 -430 -25 0 c-54 0 -116 44 -149 105 -20 38 -21 54 -24 398 l-3
357 -40 0 -39 0 0 90 0 90 40 0 40 0 0 175 0 175 100 0 100 0 0 -175z m-2179
-168 c94 -29 164 -72 239 -147 112 -112 160 -226 160 -380 0 -151 -52 -273
-165 -385 -222 -221 -570 -221 -791 -1 -111 111 -164 234 -164 381 0 281 198
504 485 549 49 7 188 -3 236 -17z m1563 -10 c93 -43 169 -144 178 -237 l3 -35
-96 -3 -96 -3 -17 45 c-9 24 -27 51 -39 59 -87 57 -197 8 -197 -87 0 -67 42
-99 185 -146 136 -44 206 -96 253 -184 23 -44 27 -63 27 -141 0 -76 -4 -98
-26 -146 -61 -130 -189 -199 -348 -186 -183 14 -317 137 -337 312 l-7 55 100
0 100 0 6 -40 c7 -58 43 -109 91 -131 110 -50 226 8 226 114 0 80 -48 124
-189 172 -138 46 -226 111 -262 190 -23 50 -25 155 -4 216 58 168 278 254 449
176z m1551 7 c64 -22 143 -72 177 -112 15 -18 28 -32 30 -32 2 0 3 30 3 67 l0
68 98 3 97 3 0 -519 0 -520 -22 -3 c-13 -2 -58 -3 -101 -1 l-78 4 1 66 c1 37
1 71 1 76 -1 5 -15 -8 -31 -29 -189 -238 -641 -168 -807 126 -88 155 -89 369
-1 543 65 128 209 237 358 271 79 18 205 13 275 -11z m1110 -79 l0 -100 -46
-6 c-85 -12 -146 -58 -182 -137 -20 -44 -22 -67 -27 -317 -5 -294 -7 -300 -67
-357 -31 -30 -72 -48 -109 -48 l-24 0 0 520 0 520 95 0 95 0 0 -46 0 -47 20
26 c25 31 110 74 170 86 77 15 75 18 75 -94z"/>
<path d="M3126 4209 c-84 -11 -220 -45 -258 -65 -44 -23 -37 -56 25 -116 85
-83 310 -218 362 -218 13 0 15 28 15 205 l0 205 -37 -1 c-21 -1 -69 -5 -107
-10z"/>
<path d="M4990 4916 c-20 -7 -56 -26 -81 -44 -50 -33 -189 -177 -189 -194 0
-7 28 -9 79 -5 118 8 237 67 282 141 26 43 24 71 -7 95 -31 24 -36 25 -84 7z"/>
<path d="M7479 4208 c-84 -84 -241 -309 -226 -324 9 -10 101 25 150 56 94 60
171 216 137 279 -15 28 -23 27 -61 -11z"/>
<path d="M4199 2416 c-226 -65 -339 -319 -234 -525 31 -62 108 -136 175 -169
47 -23 68 -27 145 -27 80 0 97 3 155 31 240 114 289 425 95 603 -90 81 -230
118 -336 87z"/>
<path d="M7350 2421 c-108 -22 -201 -99 -253 -209 -29 -60 -32 -77 -32 -157 0
-76 4 -99 27 -147 35 -76 106 -150 176 -184 50 -25 69 -29 147 -29 76 0 98 4
145 26 316 148 277 617 -59 695 -60 15 -96 16 -151 5z"/>
</g>
</svg>
